<?xml version="1.0" encoding="UTF-8" standalone="no"?>
<!-- Creator: CorelDRAW X7 -->

<svg
   xmlns:dc="http://purl.org/dc/elements/1.1/"
   xmlns:cc="http://creativecommons.org/ns#"
   xmlns:rdf="http://www.w3.org/1999/02/22-rdf-syntax-ns#"
   xmlns:svg="http://www.w3.org/2000/svg"
   xmlns="http://www.w3.org/2000/svg"
   xmlns:sodipodi="http://sodipodi.sourceforge.net/DTD/sodipodi-0.dtd"
   xmlns:inkscape="http://www.inkscape.org/namespaces/inkscape"
   xml:space="preserve"
   width="12.69974mm"
   height="4.1486001mm"
   version="1.1"
   style="clip-rule:evenodd;fill-rule:evenodd;image-rendering:optimizeQuality;shape-rendering:geometricPrecision;text-rendering:geometricPrecision"
   viewBox="0 0 1269.8724 415"
   id="svg3916"
   sodipodi:docname="scipyla-textblack.nav.svg"
   inkscape:version="0.92.2 5c3e80d, 2017-08-06"><metadata
     id="metadata3920"><rdf:RDF><cc:Work
         rdf:about=""><dc:format>image/svg+xml</dc:format><dc:type
           rdf:resource="http://purl.org/dc/dcmitype/StillImage" /><dc:title></dc:title></cc:Work></rdf:RDF></metadata><sodipodi:namedview
     pagecolor="#ffffff"
     bordercolor="#666666"
     borderopacity="1"
     objecttolerance="10"
     gridtolerance="10"
     guidetolerance="10"
     inkscape:pageopacity="0"
     inkscape:pageshadow="2"
     inkscape:window-width="1280"
     inkscape:window-height="694"
     id="namedview3918"
     showgrid="false"
     inkscape:zoom="24.062658"
     inkscape:cx="32.782109"
     inkscape:cy="8.0316091"
     inkscape:window-x="0"
     inkscape:window-y="1"
     inkscape:window-maximized="1"
     inkscape:current-layer="svg3916"
     inkscape:snap-page="true"
     inkscape:lockguides="true" /><defs
     id="defs3891"><style
       type="text/css"
       id="style3889"><![CDATA[
    .fil1 {fill:#0E253F}
    .fil0 {fill:#14365B}
    .fil4 {fill:#FFD43B}
    .fil7 {fill:white}
    .fil2 {fill:white;fill-rule:nonzero}
    .fil5 {fill:#1A0000;fill-opacity:0.200000}
    .fil3 {fill:black;fill-opacity:0.301961}
    .fil6 {fill:black;fill-opacity:0.349020}
   ]]></style></defs><path
     class="fil0"
     d="m 224.73787,-1.0150519e-5 c 108,1.000000000519 197,84.000000150519 206,190.000000150519 l -165,220 c -14,3 -28,5 -43,5 -109,-1 -198.999995,-86 -205.999995,-194 L 183.73787,3.9999898 c 13,-2 27,-3.999999950519 41,-3.999999950519 z"
     id="path3894"
     inkscape:connector-curvature="0"
     style="fill:#14365b" /><path
     class="fil1"
     d="m 201.73787,14.99999 c 8,-5.0000002 15,-10.0000002 23,-15.000000150519 -84,0 -161.999995,51.000000150519 -192.999995,131.000000150519 -11,27 -16,57 -15,87 1,8 2,16 3,25 4,-8 7,-15 11,-22 4,-6 9,-17 15,-21 7,-5 15,-3 22,2 11,9 36.999995,33 49.999995,34 6,1 8,-3 7,-8 -1,-5 -7,-12 -15,-18 -12.999995,-11 -27.999995,-22 -32.999995,-27 -5,-6 -6,-11 -5,-16 2,-9 11,-23 16,-30 3,-5 7,-11 11,-16 v 0 c 26.999995,-39 68.999995,-84 92.999995,-98 v 0 z"
     id="path3896"
     inkscape:connector-curvature="0"
     style="fill:#0e253f" /><path
     class="fil1"
     d="m 246.73787,398.99999 c -8,6 -16,11 -24,16 85,0 162,-51 194,-131 10,-26 16,-56 14,-87 0,-8 -1,-17 -3,-25 -3,8 -7,15 -11,21 l -6,9 c -3,6 -10,19 -15,23 -8,5 -15,3 -22,-2 -11,-9 -37,-33 -51,-34 -5,-1 -8,3 -7,8 1,5 8,12 16,18 12,11 27,22 32,27 8,9 7,15 1,27 -18,39 -77,105 -108,123 v 0 z"
     id="path3898"
     inkscape:connector-curvature="0"
     style="fill:#0e253f" /><path
     class="fil2"
     d="m 372.73787,93.99999 c -1,-1 -1,-3 1,-4 1,-1 3,-1 4,0 11,15 20,31 27,49 7,17 11,36 12,55 4,53 -14,103 -47,140 -32,38 -79,63 -132,66 -54,4 -103,-14 -140.999995,-47 -37,-32 -62,-79 -66,-132 -3,-53 15,-103 47,-140 32.999995,-38 78.999995,-63 131.999995,-66 l 2,-1 c 22,-1 44,1 64,7 21,6 41,15 59,28 1,1 2,3 1,4 -1,2 -3,2 -5,1 -17,-12 -36,-21 -57,-27 -20,-6 -41,-8 -63,-6 -51,3 -97,27 -127.999995,64 -32,36 -49,84 -46,135 4,52 28,97 63.999995,129 37,31 85,49 136,45 52,-3 97,-28 129,-64 31,-36 49,-84 45,-136 -1,-18 -5,-36 -12,-53 -6,-17 -15,-33 -26,-47 z"
     id="path3900"
     inkscape:connector-curvature="0"
     style="fill:#ffffff;fill-rule:nonzero" /><path
     class="fil3"
     d="m 121.73787,166.99999 v 0 c 1,38 12,64 49,76 7,2 14,3 21,4 14,1 22,0 35,0 21,0 48,8 46,31 1,-1 1,-3 1,-4 v 0 0 c 0,-1 0,-1 0,-1 v 0 0 -1 0 c 0,0 0,0 0,-1 v 0 0 0 0 0 0 -1 0 0 0 0 0 0 0 -1 0 0 0 0 0 0 0 -1 0 0 0 0 0 0 0 0 -1 0 0 0 0 0 0 0 0 -1 0 0 0 0 0 0 -1 0 0 0 0 0 -1 0 0 0 0 h -1 v 0 0 0 -1 0 0 0 0 -1 0 0 0 0 -1 0 0 0 0 0 -1 0 h -1 v 0 0 -1 0 0 0 0 0 0 0 -1 0 0 0 0 0 -1 h -1 v 0 0 -1 0 0 0 0 0 0 0 c 0,-1 0,-1 -1,-1 v 0 0 0 -1 0 0 0 0 0 l -1,-1 v 0 0 0 0 0 0 -1 0 0 0 0 h -1 v 0 0 0 -1 0 0 0 0 0 0 0 0 0 l -1,-1 v 0 0 0 0 0 0 0 0 0 -1 0 c -1,0 -1,0 -1,0 v 0 c 0,0 0,0 0,0 v 0 c 0,-1 0,-1 0,-1 v 0 h -1 v 0 c 0,0 0,0 0,-1 v 0 c 0,0 0,0 -1,0 v 0 c 0,0 0,0 0,0 v 0 c 0,0 0,-1 0,-1 v 0 c -1,0 -1,0 -1,0 v 0 c 0,0 0,0 0,0 v 0 c 0,-1 -1,-1 -1,-1 v 0 c 0,0 0,0 0,0 v 0 c 0,0 0,0 -1,-1 v 0 c 0,0 0,0 0,0 v 0 c 0,0 0,0 0,0 v 0 c -1,0 -1,0 -1,-1 v 0 c 0,0 0,0 0,0 v 0 c -1,0 -1,0 -1,0 v 0 c 0,0 0,0 0,0 v 0 c -1,-1 -1,-1 -1,-1 v 0 c 0,0 0,0 0,0 v 0 c -1,0 -1,0 -1,0 v 0 c 0,-1 0,-1 0,-1 v 0 c -1,0 -1,0 -1,0 v 0 c 0,0 0,0 0,0 v 0 c -1,0 -1,0 -1,-1 v 0 c 0,0 0,0 -1,0 v 0 c 0,0 0,0 0,0 v 0 c 0,0 -1,0 -1,0 v 0 c 0,0 0,-1 0,-1 v 0 c -1,0 -1,0 -1,0 v 0 c 0,0 0,0 -1,0 v 0 c 0,0 0,0 0,0 v 0 c 0,0 -1,0 -1,-1 v 0 c 0,0 0,0 0,0 v 0 c -1,0 -1,0 -1,0 v 0 h -1 v 0 c 0,0 0,0 0,0 v 0 c -1,0 -1,-1 -1,-1 v 0 c 0,0 0,0 -1,0 v 0 c 0,0 0,0 0,0 v 0 c -1,0 -1,0 -1,0 v 0 c 0,0 0,0 -1,0 v 0 c 0,0 0,0 0,-1 v 0 c -1,0 -1,0 -1,0 v 0 c 0,0 -1,0 -1,0 v 0 h -1 v 0 c 0,0 0,0 0,0 v 0 c -1,0 -1,0 -1,0 v 0 c 0,0 -1,0 -1,0 v 0 c 0,0 0,0 -1,0 v 0 c 0,0 0,-1 0,-1 v 0 c -1,0 -1,0 -1,0 v 0 c 0,0 -1,0 -1,0 v 0 h -1 v 0 c 0,0 0,0 -1,0 v 0 c 0,0 0,0 0,0 v 0 c -1,0 -1,0 -1,0 v 0 c -1,0 -1,0 -1,0 v 0 c 0,0 -1,0 -1,0 v 0 c 0,0 -1,0 -1,0 v 0 c 0,0 0,0 -1,0 v 0 c 0,0 0,0 -1,0 v 0 c 0,0 0,0 0,0 v 0 h -1 v 0 h -1 v 0 0 0 h -1 v 0 0 h -1 v 0 h -1 v 0 0 h -1 v 0 0 h -1 v 0 h -1 v 0 h -1 v 0 h -1 v 0 0 h -1 v 0 0 0 h -1 v 0 0 h -1 v 0 0 h -1 v 0 0 0 h -1 v 0 0 h -1 v 0 h -1 v 0 0 0 h -1 v 0 0 h -1 v 0 0 0 h -1 v 0 0 h -1 v 0 0 h -1 v 0 0 0 h -1 v 0 0 0 h -1 v 0 0 0 h -1 v 0 0 h -1 v 0 0 0 h -1 v 0 h -1 v 0 0 h -1 v 0 -1 0 h -1 v 0 0 0 h -1 v 0 h -1 v 0 0 h -1 v 0 0 0 h -1 v 0 h -1 v 0 0 0 h -1 v 0 0 0 0 0 h -1 v 0 0 0 0 h -1 v 0 0 0 0 0 h -1 v 0 0 0 0 h -1 v 0 h -1 v 0 0 l -1,-1 v 0 0 0 0 h -1 c 0,0 0,0 -1,0 v 0 0 0 h -1 v 0 0 0 h -1 v 0 0 h -1 v 0 0 0 0 0 l -1,-1 v 0 0 0 0 h -1 v 0 0 0 h -1 v 0 0 0 h -1 v 0 0 0 0 h -1 v -1 0 0 0 h -1 v 0 0 h -1 v 0 0 0 0 h -1 v 0 0 l -1,-1 v 0 0 0 h -1 c 0,0 -1,0 -2,0 v -1 c -1,0 -1,0 -2,0 v 0 c 0,0 -1,-1 -1,-1 h -1 c 0,0 -1,0 -1,-1 h -1 c 0,0 -1,0 -1,-1 h -1 c 0,0 0,0 -1,0 v -1 c -1,0 -1,0 -2,0 v -1 c -1,0 -1,0 -1,0 h -1 c 0,-1 -1,-1 -1,-1 v -1 c -1,0 -1,0 -2,0 v -1 c -1,0 -1,0 -1,-1 h -1 c 0,0 0,0 -1,-1 v 0 c -1,0 -1,0 -1,-1 h -1 c 0,0 -1,-1 -1,-1 v 0 c -1,-1 -1,-1 -1,-1 l -1,-1 c 0,0 0,0 -1,-1 v 0 c 0,0 -1,-1 -1,-1 v 0 c -1,-1 -1,-1 -2,-1 v -1 c 0,0 0,0 -1,-1 v 0 c 0,0 -1,-1 -1,-1 v -1 c -1,0 -1,0 -1,-1 h -1 c 0,0 0,-1 0,-1 0,0 -1,0 -1,0 0,-1 0,-1 -1,-2 v 0 c 0,-1 0,-1 -1,-1 v -1 c 0,0 0,0 -1,-1 v 0 c 0,-1 0,-1 -1,-1 v -1 c 0,0 0,-1 -1,-1 0,0 0,-1 0,-1 0,0 0,0 0,-1 h -1 c 0,-1 0,-1 0,-1 0,-1 -1,-1 -1,-1 0,0 0,-1 0,-1 v -1 c -1,0 -1,0 -1,-1 0,0 0,0 0,-1 0,0 0,0 -1,-1 0,0 0,0 0,0 0,-1 0,-1 0,-1 0,0 0,-1 0,-1 -1,0 -1,-1 -1,-1 0,0 0,-1 0,-1 0,0 0,-1 0,-1 -1,0 -1,0 -1,-1 0,0 0,0 0,-1 0,0 0,0 0,-1 0,0 0,0 0,0 -1,-1 -1,-1 -1,-1 0,-1 0,-1 0,-2 0,0 0,0 0,0 0,-1 0,-1 0,-1 0,-1 0,-1 0,-1 -1,0 -1,-1 -1,-1 0,0 0,-1 0,-1 0,0 0,-1 0,-1 0,0 0,-1 0,-1 0,0 0,0 0,-1 0,0 0,0 0,-1 0,0 0,-1 0,-1 0,0 0,0 0,-1 0,0 0,0 0,-1 0,0 0,0 0,0 z m -9,215 c -4,-5 -3,-11 0,-16 1,-2 2,-4 3,-6 2,-1 3,-3 5,-5 9,-10 23,-30 32,-37 v -1 0 h 1 v 0 0 0 0 0 0 h 1 v 0 -1 0 0 0 0 0 h 1 v 0 0 0 0 0 c 0,0 0,0 1,-1 v 0 0 0 0 0 0 0 0 h 1 v 0 0 c 0,0 0,0 0,0 v 0 0 h 1 v 0 0 c 0,0 0,-1 0,-1 v 0 c 1,0 1,0 1,0 v 0 0 0 c 3,0 6,1 8,2 v 0 c 4,3 9,7 14,11 16,12 39,29 69,25 50,-6 95,-63 47,-119 v 0 0 0 0 0 0 0 0 0 0 0 0 0 0 0 c 0,1 0,1 1,1 v 0 c 2,3 3,7 5,10 v 0 c 1,4 3,8 3,11 v 0 c 0,1 1,1 1,1 0,0 0,1 0,1 v 0 c 0,0 0,1 0,1 v 0 c 0,0 0,1 0,1 v 0 1 0 c 0,0 0,0 0,1 v 0 c 0,0 0,1 1,1 v 0 c 0,1 0,1 0,2 v 0 c 0,0 0,0 0,1 v 0 0 0 0 1 0 c 0,0 0,1 0,1 v 0 0 c 0,1 0,1 0,1 v 0 c 0,1 0,1 0,1 v 0 c 0,1 0,1 0,2 v 0 0 1 0 0 1 0 0 1 0 0 1 0 1 0 1 0 1 0 1 h -1 v 1 0 1 0 1 0 0 0 1 0 1 0 0 0 1 0 h -1 v 0 1 0 0 0 1 0 0 0 1 0 c 0,0 0,0 0,1 v 0 c -1,0 -1,0 -1,1 v 0 c 0,0 0,0 0,1 v 0 c 0,0 0,1 -1,2 0,0 0,1 0,1 0,0 0,1 0,1 -1,0 -1,1 -1,1 0,0 0,1 0,1 -1,1 -1,1 -1,2 0,0 0,1 -1,1 v 0 c 0,0 0,1 0,1 0,0 0,1 -1,1 v 0 c 0,1 0,1 -1,2 0,0 0,1 -1,2 v 0 c 0,0 0,0 0,1 v 0 c 0,0 -1,0 -1,1 0,0 0,0 0,0 -1,1 -1,2 -2,2 0,1 0,1 0,1 v 0 c -1,1 -1,1 -1,1 0,0 0,1 -1,1 0,0 0,1 0,1 v 0 c -1,0 -1,0 -1,1 0,0 -1,0 -1,1 v 0 c 0,0 0,0 0,0 v 0 c -1,1 -1,1 -1,1 -1,0 -1,1 -1,1 v 0 c 0,0 -1,1 -1,1 v 0 c 0,0 0,0 -1,1 0,0 0,0 0,0 -1,1 -1,1 -1,1 -1,0 -1,1 -1,1 0,0 -1,0 -1,1 0,0 -1,0 -1,0 v 0 c 0,1 0,1 -1,1 0,0 0,1 -1,1 v 0 c 0,0 0,0 -1,1 0,0 0,0 0,0 -1,0 -1,1 -1,1 -1,0 -1,0 -1,1 v 0 c -1,0 -1,0 -1,0 -1,0 -1,1 -1,1 v 0 c -1,0 -1,0 -1,0 v 0 c -1,1 -1,1 -1,1 -1,0 -1,0 -1,1 -1,0 -1,0 -2,0 v 0 c 0,0 0,0 -1,1 v 0 c 0,0 0,0 -1,0 v 0 c 0,0 0,1 -1,1 0,0 -1,0 -1,0 v 0 c 0,0 -1,1 -1,1 v 0 c 0,0 -1,0 -1,0 v 0 c -1,0 -1,0 -1,1 v 0 c -1,0 -1,0 -1,0 v 0 c -1,0 -1,0 -2,0 0,1 0,1 -1,1 v 0 c 0,0 -1,0 -1,0 v 0 c 0,0 -1,0 -1,1 v 0 c -1,0 -1,0 -2,0 v 0 c 0,0 -1,0 -1,0 v 0 c -1,0 -1,1 -2,1 v 0 c 0,0 -1,0 -1,0 v 0 c -1,0 -1,0 -2,0 v 0 c 0,0 -1,0 -1,1 v 0 c 0,0 -1,0 -1,0 v 0 c -1,0 -1,0 -2,0 v 0 c 0,0 -1,0 -1,0 v 0 c -1,0 -1,0 -2,0 0,0 -1,0 -1,0 -1,0 -1,0 -1,0 -1,0 -1,0 -2,0 0,0 -1,0 -1,0 -1,0 -1,0 -1,0 -1,0 -1,0 -2,0 0,0 -1,0 -1,0 -1,0 -1,0 -1,0 -1,0 -1,0 -2,0 v 0 c 0,0 0,0 -1,0 v 0 c 0,-1 -1,-1 -1,-1 -1,0 -1,0 -1,0 -1,0 -1,0 -2,0 0,0 0,0 -1,-1 0,0 -1,0 -1,0 v 0 c 0,0 -1,0 -1,0 -1,0 -1,0 -1,-1 -1,0 -1,0 -2,0 0,0 0,0 -1,0 0,0 -1,-1 -1,-1 0,0 -1,0 -1,0 0,0 -1,-1 -1,-1 -1,0 -1,0 -1,0 -1,0 -1,-1 -1,-1 v 0 c -1,0 -1,0 -2,0 0,0 0,-1 -1,-1 0,0 0,0 -1,0 v 0 c 0,0 0,-1 -1,-1 v 0 c 0,0 -1,0 -1,0 v 0 c 0,-1 -1,-1 -1,-1 0,0 -1,-1 -1,-1 0,0 -1,0 -1,0 0,-1 -1,-1 -1,-1 -1,0 -2,-1 -2,-1 -1,-1 -1,-1 -1,-1 -1,0 -1,0 -1,-1 v 0 c -1,0 -1,0 -1,0 -1,-1 -1,-1 -1,-1 v 0 c -1,0 -1,-1 -1,-1 v 0 c -1,0 -1,0 -1,-1 v 0 c -1,0 -1,0 -1,0 v 0 c -1,-1 -2,-1 -2,-2 l -1,-1 v 0 c -1,0 -2,-1 -3,-2 v 0 c -1,0 -2,-1 -2,-2 v 0 c -1,0 -2,-1 -2,-1 v 0 c -1,-1 -2,-2 -3,-3 h -1 v 0 l -1,-1 v 0 c -10,-9 -20,-19 -32,-7 h -1 v 0 c 0,1 0,1 0,1 v 0 0 0 h -1 v 0 1 0 0 0 l -1,1 v 0 0 0 0 0 l -1,1 v 0 0 0 l -4,5 v 0 l -34,42 v 0 l -2,3 c 0,0 -1,1 -1,2 -1,0 -1,0 -1,1 0,0 0,0 0,0 0,0 0,0 0,0 -2.999995,5 -2,11 1,16 l 5,4 z m 55,-193 c -15,-27 11,-55 36,-40 15,8 26,22 40,29 20,11 48,14 70,-27 v 0 0 h -1 v 1 0 0 0 0 0 0 0 0 l -1,1 v 0 0 0 0 0 1 0 0 l -1,1 v 0 0 0 h -1 v 0 0 0 1 0 0 0 0 0 0 0 0 l -1,1 v 0 0 0 0 0 0 0 0 0 0 0 1 h -1 v 0 0 0 0 0 0 0 0 0 0 0 1 0 0 0 0 0 h -1 v 0 0 0 0 0 0 0 0 0 0 0 1 c -22,19 -44,16 -66,2 0,-1 0,-1 -1,-1 -2,-2 -4,-3 -5,-5 -3,-2 -5,-4 -9,-6 -1,-1 -2,-2 -2,-2 h -1 c -12,-11 -21,-20 -37,-18 v 0 c 0,0 -1,0 -1,0 v 0 c 0,0 0,0 -1,0 v 1 h -1 c 0,0 0,0 0,0 h -1 v 0 h -1 v 0 0 l -1,1 v 0 h -1 v 0 0 h -1 v 1 h -1 v 0 0 h -1 v 0 l -1,1 v 0 0 h -1 v 0 1 h -1 v 0 0 l -1,1 v 0 0 h -1 v 0 0 1 0 h -1 v 0 0 0 1 0 h -1 v 0 0 l -1,1 v 0 0 0 0 l -1,1 v 0 0 0 0 0 c -1,1 -1,1 -2,2 v 0 1 0 h -1 v 0 c 0,0 0,1 0,1 -1,0 -1,1 -1,1 v 0 c 0,0 0,0 0,1 v 0 c -1,0 -1,0 -1,1 0,0 -1,0 -1,1 v 0 c 0,1 -1,2 -2,4 0,0 0,0 0,1 v 0 0 0 0 c 0,1 0,1 0,1 v 1 h -1 v 0 0 1 0 0 1 0 0 0 0 1 0 0 0 1 0 0 0 0 1 h -1 v 1 0 0 1 0 0 1 0 1 0 0 0 0 1 0 0 1 0 0 1 0 h 1 v 1 0 1 0 0 1 0 0 1 0 1 0 1 h 1 v 0 0 1 0 0 1 0 0 0 0 0 1 0 h 1 v 0 0 0 0 0 1 0 0 0 0 0 0 1 0 0 0 0 0 h 1 v 1 0 0 0 1 0 0 0 0 h 1 v 0 1 0 0 0 0 1 0 0 h 1 v 0 0 0 0 1 0 0 0 0 0 0 l 1,1 v 0 0 0 0 0 0 0 1 h 1 v 0 0 0 1 0 0 0 0 h 1 v 0 1 0 0 0 h 1 v 1 0 0 0 0 0 0 0 0 0 0 0 0 0 0 0 0 h 1 v 0 0 0 0 0 0 1 0 0 0 0 0 0 0 0 0 0 0 0 0 0 0 0 0 0 0 0 0 0 0 0 0 0 z"
     id="path3902"
     inkscape:connector-curvature="0"
     style="fill:#000000;fill-opacity:0.30196102" /><path
     class="fil4"
     d="m 107.73787,378.99999 c -7.999995,-6 -8.999995,-16 -3,-22 l 40,-50 c 7,-9 15,-12 25,-5 4,3 8,6 13,9 21,17 42,35 74,26 27,-7 44,-27 50,-49 2,-11 3,-21 1,-32 -3,-10 -7,-21 -15,-29 -37,-39 -72,-19 -112,-30 -5,-2 -10,-5 -14,-9 -4,-4 -7,-10 -9,-15 -2,-10 0,-19 4,-26 4,-8 12,-14 21,-16 17,-5 27,6 40,17 5,3 10,7 16,12 22,17 48,21 68,0 2,-2 13,-18 14,-19 2,-1 5,2 6,3 5,4 12,3 15,-4 l 8,-33 c 1,-6 3,-12 -2,-16 -1,-1 -1,-2 -2,-2 l 7,-10 14,1 c 2,0 3,-2 3,-4 0,-2 -1,-4 -3,-4 h -13 l -3,-12 c 0,-2 -2,-3 -4,-3 -2,1 -3,3 -3,5 l 4,13 -2,2 v 0 l -6,7 c 0,0 -1,-1 -2,-1 -3,-3 -6,-3 -10,-2 -2,0 -4,1 -6,3 l -31,15 c -5,3 -7,9 -3,14 3,4 8,3 3,10 l -6,8 c -8,10 -15,8 -22,3 -5,-3 -10,-7 -15,-11 -22,-18 -41,-33 -77,-24 -18,5 -30,15 -39,30 -22,38 -3,88 39,101 7,2 14,4 22,4 14,1 21,1 35,1 19,0 31,6 39,14 3,4 5,9 6,14 2,6 1,11 0,16 -3,11 -11,21 -24,24 -16,4 -30,-7 -44,-19 -8,-6 -16,-13 -25,-17 -10,-5 -20,-7 -30,-5 -6,1 -12,3 -17,7 -10,7 -17,18 -24,27 -8,10 -37.999995,43 -40.999995,53 -1,3 -1,7 -1,11 0,20 16,36 35.999995,36 8,0 15,-3 21,-7 v 0 0 0 c -4,-3 -6,-4 -10,-6 -2,-2 -4,-3 -6,-4 z m 211,-272 c -3,0 -5,-2 -5,-5 0,-3 2,-5 5,-5 3,-1 5,2 6,5 0,3 -3,5 -6,5 z"
     id="path3904"
     inkscape:connector-curvature="0"
     style="fill:#ffd43b" /><path
     class="fil5"
     d="m 249.73787,330.99999 c -24,7 -41,0 -57,-11 18,13 37,24 64,17 27,-7 44,-27 50,-49 2,-11 3,-21 1,-32 -2,-8 -5,-16 -10,-23 -2,-2 -3,-4 -5,-6 -4,-5 -10,-10 -16,-14 3,3 6,5 9,8 7,9 12,19 14,30 2,10 2,21 -1,31 -6,23 -22,42 -49,49 z m 64,-194 c -16,22 -34,44 -65,30 8,5 17,7 25,7 11,1 23,-4 33,-14 0,0 0,0 0,0 0,0 0,0 0,0 0,0 0,0 0,-1 1,0 4,-4 6,-7 4,-5 8,-10 8,-11 2,-1 5,2 6,3 5,4 12,3 15,-4 l 6,-26 c 0,-1 -10,30 -21,21 -4,-4 -9,-3 -13,2 z m -156,36 c -2,-10 0,-19 4,-26 4,-8 12,-14 21,-16 12,-4 21,1 30,8 -19,-23 -47,-16 -58,1 -10,15 -7,38 16,51 -1,-1 -2,-1 -3,-2 0,0 -1,-1 -1,-1 -4,-4 -7,-10 -9,-15 z m 186,-94 -4,5 6,5 4,-5 c -2,0 -6,-3 -6,-5 z m -241,280 c 1,-1 2,-2 2,-2 l 2,-3 38,-47 c 6,-8 14,-12 23,-7 -2,-1 -4,-3 -6,-4 -9,-7 -18,-3 -25,6 l -36.999995,46 -2,3 c -1,0 -1,1 -1,1 -5,6 -4,14 1,19 1,1 1,2 2,2 0.999995,1 0.999995,1 0.999995,1 2,1 4,3 6,4 -6,-5 -7.999995,-13 -4,-19 z"
     id="path3906"
     inkscape:connector-curvature="0"
     style="fill:#1a0000;fill-opacity:0.2" /><path
     class="fil6"
     d="m 142.73787,114.99999 c 9,4 14,6 21,11 1,-8 -1,-15 -4,-23 -7,3 -12,7 -17,12 z m 101,33 c 9,-1 17,-6 23,-11 0,0 0,0 0,0 -1,-1 -3,-2 -4,-3 -4,-3 -8,-6 -12,-9 -1,10 -3,16 -7,23 z m -16,87 c 7,0 13,1 19,2 -1,-1 -1,-2 -2,-3 -2,-7 -3,-13 -4,-20 -5,4 -9,10 -12,16 -1,1 -2,3 -2,5 0,0 0,0 1,0 z m -32,-1 c 8,1 14,1 20,1 -4,-8 -5,-14 -7,-22 -6,6 -11,13 -13,21 z m -25,-4 c 4,1 8,2 13,3 -1,-1 -1,-3 -1,-4 -2,-7 -2,-12 -1,-19 -7,4 -12,9 -16,15 0,1 -1,2 -1,3 2,1 4,1 6,2 z m -48,-62 c 8,-4 14,-6 22,-6 -5,-7 -13,-11 -21,-14 -1,6 -2,13 -2,19 1,0 1,0 1,1 z m 4,-29 c 9,0 14,0 22,2 -2,-8 -6,-14 -12,-20 -2,3 -4,5 -5,8 -2,3 -4,7 -5,10 z m -16,191 c -1,-9 -6,-17 -10.999995,-23 -5,5 -9,11 -14,16 5,0 10,1 13,2 3.999995,1 7.999995,3 11.999995,5 z m -6,-29 4,-5 c 3,-3 5,-7 8,-11 5,7 11,15 12,23 -8,-4 -14,-6 -24,-7 z m 82,-30 c -1,10 -3,16 -7,24 9,-2 17,-6 23,-12 -5,-4 -11,-8 -16,-12 z m 23,17 c -1,10 -3,16 -6,24 9,-2 16,-6 22,-12 -5,-3 -11,-7 -16,-12 z m 63,-7 c -2,6 -6,12 -12,16 10,1 18,1 25,5 -1,-9 -6,-16 -13,-21 z m -52,-150 c 9,-1 17,-5 24,-11 -6,-4 -11,-9 -17,-12 -1,10 -3,16 -7,23 z"
     id="path3908"
     inkscape:connector-curvature="0"
     style="fill:#000000;fill-opacity:0.34902003" /><path
     class="fil4"
     d="m 898.73787,133.99999 c 9,9 14,22 14,39 0,17 -5,30 -14,39 -8,9 -21,13 -37,13 h -29 v 49 h -30 v -153 h 59 c 16,0 29,4 37,13 z m -16,39 c 0,-17 -8,-25 -22,-25 h -28 v 50 h 28 c 7,0 12,-2 16,-6 4,-3 6,-10 6,-19 z m 146.00003,-22 -46.00003,137 c -3,6 -5,11 -9,15 -6,5 -14,8 -24,8 h -20 v -25 h 15 c 5,0 8,-1 9,-2 2,-1 4,-4 6,-8 l 2,-6 -37,-119 h 29 l 22,86 24,-86 z"
     id="path3910"
     inkscape:connector-curvature="0"
     style="fill:#ffd43b" /><path
     class="fil7"
     d="m 1265.7379,273.99999 h -31 l -9,-26 h -48 l -8,26 h -31 l 47,-140 c 2,-5 5,-8 7,-10 3,-2 6,-3 10,-3 4,0 7,1 9,3 3,1 5,5 7,10 z m -656.00003,-45 c 0,15 -6,26 -16,34 -11,9 -25,13 -41,13 -13,0 -26,-4 -38,-11 -6,-4 -11,-9 -15,-16 -4,-7 -6,-15 -6,-23 l 27,-2 c 0,8 4,14 10,18 7,5 14,7 22,7 18,0 27,-6 27,-19 0,-10 -6,-16 -18,-18 l -25,-3 c -13,-2 -22,-6 -30,-13 -7,-7 -11,-17 -11,-31 0,-13 5,-24 16,-32 10,-9 24,-13 40,-13 16,0 29,4 38,12 10,8 15,18 15,31 l -27,1 c -2,-12 -11,-18 -25,-18 -9,0 -16,2 -20,5 -5,4 -8,8 -8,14 0,5 2,9 5,12 4,3 9,4 14,5 l 24,3 c 28,3 42,18 42,44 z m 88,0 h 25 c 0,1 0,3 0,6 0,3 -1,5 -1,7 0,1 0,2 0,5 0,2 -1,4 -1,5 0,1 -1,2 -2,4 -2,7 -9,13 -21,18 -7,2 -15,3 -23,3 -8,0 -15,-1 -21,-3 -7,-3 -12,-6 -16,-10 -8,-9 -12,-26 -12,-50 0,-25 4,-42 12,-51 4,-4 9,-7 16,-10 6,-2 13,-3 21,-3 16,0 28,3 36,11 8,8 12,19 12,33 h -26 c 0,-7 -1,-11 -4,-15 -4,-3 -9,-4 -18,-4 -9,0 -14,2 -17,8 -3,5 -4,13 -4,24 v 11 c 0,17 3,27 10,31 3,2 7,3 11,3 5,0 9,0 12,-1 4,-1 6,-3 7,-5 1,-2 2,-5 3,-7 0,-2 1,-5 1,-10 z m 63,-125 c 7,0 11,1 13,3 2,3 3,7 3,14 0,6 -1,11 -3,13 -2,2 -7,3 -13,3 -7,0 -11,-1 -13,-3 -2,-3 -4,-7 -4,-14 0,-6 2,-10 4,-13 2,-2 6,-3 13,-3 z m 14,170 h -28 v -118 h 28 z m 345.00003,0 h -34 c -30,0 -37,-8 -37,-37 v -116 h 30 v 111 c 0,9 4,16 13,16 h 36 z m 99,-51 -16,-61 -17,61 z"
     id="path3912"
     inkscape:connector-curvature="0"
     style="fill:#000000" /></svg>